<svg width="361" height="361" viewBox="0 0 361 361" fill="none" xmlns="http://www.w3.org/2000/svg">
<g clip-path="url(#clip0_1_4)">
<rect width="361" height="361" fill="white"/>
<rect width="361" height="361" fill="#5FC3A5"/>
<mask id="path-2-inside-1_1_4" fill="white">
<path fill-rule="evenodd" clip-rule="evenodd" d="M288.519 45.9616L307.205 41L312.166 59.6858L293.48 64.6474L298.442 83.3333L279.756 88.2948L284.718 106.981L266.032 111.942L270.993 130.628L252.308 135.59L257.269 154.276L238.583 159.237L219.897 164.199L201.212 169.16L196.25 150.474L177.564 155.436L172.603 136.75L153.917 141.712L148.955 123.026L130.269 127.988L135.231 146.673L116.545 151.635L121.507 170.321L102.821 175.282L107.782 193.968L89.0966 198.93L70.4108 203.891L70.3253 203.569L51.9616 208.445L47 189.759L65.3637 184.883L60.4876 166.52L79.1735 161.558L74.2119 142.872L92.8977 137.911L87.9361 119.225L106.622 114.263L101.66 95.5775L120.346 90.6159L139.032 85.6543L157.718 80.6927L162.679 99.3785L181.365 94.417L186.327 113.103L205.013 108.141L209.974 126.827L228.66 121.865L223.699 103.18L242.384 98.218L237.423 79.5322L256.109 74.5706L251.147 55.8848L269.833 50.9232L288.519 45.9616Z"/>
</mask>
<path fill-rule="evenodd" clip-rule="evenodd" d="M288.519 45.9616L307.205 41L312.166 59.6858L293.48 64.6474L298.442 83.3333L279.756 88.2948L284.718 106.981L266.032 111.942L270.993 130.628L252.308 135.59L257.269 154.276L238.583 159.237L219.897 164.199L201.212 169.16L196.25 150.474L177.564 155.436L172.603 136.75L153.917 141.712L148.955 123.026L130.269 127.988L135.231 146.673L116.545 151.635L121.507 170.321L102.821 175.282L107.782 193.968L89.0966 198.93L70.4108 203.891L70.3253 203.569L51.9616 208.445L47 189.759L65.3637 184.883L60.4876 166.52L79.1735 161.558L74.2119 142.872L92.8977 137.911L87.9361 119.225L106.622 114.263L101.66 95.5775L120.346 90.6159L139.032 85.6543L157.718 80.6927L162.679 99.3785L181.365 94.417L186.327 113.103L205.013 108.141L209.974 126.827L228.66 121.865L223.699 103.18L242.384 98.218L237.423 79.5322L256.109 74.5706L251.147 55.8848L269.833 50.9232L288.519 45.9616Z" fill="#FEDE33"/>
<path d="M307.205 41L308.171 40.7434L307.914 39.7769L306.948 40.0335L307.205 41ZM288.519 45.9616L288.262 44.9951L288.262 44.9951L288.519 45.9616ZM312.166 59.6858L312.423 60.6523L313.389 60.3957L313.133 59.4292L312.166 59.6858ZM293.48 64.6474L293.224 63.6809L292.257 63.9375L292.514 64.9041L293.48 64.6474ZM298.442 83.3333L298.699 84.2998L299.665 84.0431L299.408 83.0766L298.442 83.3333ZM279.756 88.2948L279.499 87.3283L278.533 87.585L278.79 88.5515L279.756 88.2948ZM284.718 106.981L284.974 107.947L285.941 107.691L285.684 106.724L284.718 106.981ZM266.032 111.942L265.775 110.976L264.809 111.232L265.065 112.199L266.032 111.942ZM270.993 130.628L271.25 131.595L272.217 131.338L271.96 130.371L270.993 130.628ZM252.308 135.59L252.051 134.623L251.084 134.88L251.341 135.846L252.308 135.59ZM257.269 154.276L257.526 155.242L258.492 154.985L258.236 154.019L257.269 154.276ZM238.583 159.237L238.327 158.271L238.327 158.271L238.583 159.237ZM219.897 164.199L220.154 165.165L220.154 165.165L219.897 164.199ZM201.212 169.16L200.245 169.417L200.502 170.383L201.468 170.127L201.212 169.16ZM196.25 150.474L197.217 150.218L196.96 149.251L195.993 149.508L196.25 150.474ZM177.564 155.436L176.598 155.693L176.854 156.659L177.821 156.403L177.564 155.436ZM172.603 136.75L173.569 136.494L173.313 135.527L172.346 135.784L172.603 136.75ZM153.917 141.712L152.95 141.968L153.207 142.935L154.173 142.678L153.917 141.712ZM148.955 123.026L149.922 122.769L149.665 121.803L148.699 122.059L148.955 123.026ZM130.269 127.988L130.013 127.021L129.046 127.278L129.303 128.244L130.269 127.988ZM135.231 146.673L135.488 147.64L136.454 147.383L136.197 146.417L135.231 146.673ZM116.545 151.635L116.289 150.668L115.322 150.925L115.579 151.892L116.545 151.635ZM121.507 170.321L121.763 171.287L122.73 171.031L122.473 170.064L121.507 170.321ZM102.821 175.282L102.564 174.316L101.598 174.573L101.854 175.539L102.821 175.282ZM107.782 193.968L108.039 194.935L109.006 194.678L108.749 193.712L107.782 193.968ZM89.0966 198.93L88.84 197.963L88.84 197.963L89.0966 198.93ZM70.4108 203.891L69.4443 204.148L69.7009 205.115L70.6674 204.858L70.4108 203.891ZM70.3253 203.569L71.2918 203.313L71.0351 202.346L70.0686 202.603L70.3253 203.569ZM51.9616 208.445L50.9951 208.702L51.2517 209.668L52.2182 209.412L51.9616 208.445ZM47 189.759L46.7434 188.793L45.7769 189.05L46.0335 190.016L47 189.759ZM65.3637 184.883L65.6203 185.85L66.5868 185.593L66.3302 184.627L65.3637 184.883ZM60.4876 166.52L60.231 165.553L59.2645 165.81L59.5211 166.776L60.4876 166.52ZM79.1735 161.558L79.4301 162.525L80.3966 162.268L80.14 161.302L79.1735 161.558ZM74.2119 142.872L73.9552 141.906L72.9887 142.162L73.2454 143.129L74.2119 142.872ZM92.8977 137.911L93.1544 138.877L94.1209 138.621L93.8642 137.654L92.8977 137.911ZM87.9361 119.225L87.6795 118.258L86.713 118.515L86.9696 119.482L87.9361 119.225ZM106.622 114.263L106.879 115.23L107.845 114.973L107.588 114.007L106.622 114.263ZM101.66 95.5775L101.404 94.611L100.437 94.8676L100.694 95.8341L101.66 95.5775ZM120.346 90.6159L120.603 91.5824L120.603 91.5824L120.346 90.6159ZM139.032 85.6543L138.775 84.6878L138.775 84.6878L139.032 85.6543ZM157.718 80.6927L158.684 80.4361L158.428 79.4696L157.461 79.7262L157.718 80.6927ZM162.679 99.3785L161.713 99.6352L161.97 100.602L162.936 100.345L162.679 99.3785ZM181.365 94.417L182.332 94.1603L182.075 93.1938L181.109 93.4504L181.365 94.417ZM186.327 113.103L185.36 113.359L185.617 114.326L186.584 114.069L186.327 113.103ZM205.013 108.141L205.979 107.885L205.723 106.918L204.756 107.175L205.013 108.141ZM209.974 126.827L209.008 127.084L209.264 128.05L210.231 127.794L209.974 126.827ZM228.66 121.865L228.917 122.832L229.883 122.575L229.627 121.609L228.66 121.865ZM223.699 103.18L223.442 102.213L222.475 102.47L222.732 103.436L223.699 103.18ZM242.384 98.218L242.641 99.1845L243.608 98.9279L243.351 97.9614L242.384 98.218ZM237.423 79.5322L237.166 78.5657L236.2 78.8223L236.456 79.7888L237.423 79.5322ZM256.109 74.5706L256.365 75.5371L257.332 75.2805L257.075 74.314L256.109 74.5706ZM251.147 55.8848L250.89 54.9183L249.924 55.1749L250.181 56.1414L251.147 55.8848ZM269.833 50.9232L270.09 51.8897L270.09 51.8897L269.833 50.9232ZM306.948 40.0335L288.262 44.9951L288.775 46.9281L307.461 41.9665L306.948 40.0335ZM313.133 59.4292L308.171 40.7434L306.238 41.2566L311.2 59.9425L313.133 59.4292ZM293.737 65.6139L312.423 60.6523L311.91 58.7193L293.224 63.6809L293.737 65.6139ZM299.408 83.0766L294.447 64.3908L292.514 64.9041L297.475 83.5899L299.408 83.0766ZM280.013 89.2614L298.699 84.2998L298.185 82.3667L279.499 87.3283L280.013 89.2614ZM285.684 106.724L280.723 88.0382L278.79 88.5515L283.751 107.237L285.684 106.724ZM266.288 112.909L284.974 107.947L284.461 106.014L265.775 110.976L266.288 112.909ZM271.96 130.371L266.998 111.686L265.065 112.199L270.027 130.885L271.96 130.371ZM252.564 136.556L271.25 131.595L270.737 129.662L252.051 134.623L252.564 136.556ZM258.236 154.019L253.274 135.333L251.341 135.846L256.303 154.532L258.236 154.019ZM238.84 160.204L257.526 155.242L257.013 153.309L238.327 158.271L238.84 160.204ZM220.154 165.165L238.84 160.204L238.327 158.271L219.641 163.232L220.154 165.165ZM201.468 170.127L220.154 165.165L219.641 163.232L200.955 168.194L201.468 170.127ZM195.284 150.731L200.245 169.417L202.178 168.904L197.217 150.218L195.284 150.731ZM177.821 156.403L196.507 151.441L195.993 149.508L177.308 154.47L177.821 156.403ZM171.636 137.007L176.598 155.693L178.531 155.179L173.569 136.494L171.636 137.007ZM154.173 142.678L172.859 137.717L172.346 135.784L153.66 140.745L154.173 142.678ZM147.989 123.283L152.95 141.968L154.883 141.455L149.922 122.769L147.989 123.283ZM130.526 128.954L149.212 123.992L148.699 122.059L130.013 127.021L130.526 128.954ZM136.197 146.417L131.236 127.731L129.303 128.244L134.264 146.93L136.197 146.417ZM116.802 152.601L135.488 147.64L134.974 145.707L116.289 150.668L116.802 152.601ZM122.473 170.064L117.512 151.378L115.579 151.892L120.54 170.577L122.473 170.064ZM103.078 176.249L121.763 171.287L121.25 169.354L102.564 174.316L103.078 176.249ZM108.749 193.712L103.787 175.026L101.854 175.539L106.816 194.225L108.749 193.712ZM89.3533 199.896L108.039 194.935L107.526 193.002L88.84 197.963L89.3533 199.896ZM70.6674 204.858L89.3533 199.896L88.84 197.963L70.1542 202.925L70.6674 204.858ZM69.3587 203.826L69.4443 204.148L71.3773 203.635L71.2918 203.313L69.3587 203.826ZM52.2182 209.412L70.5819 204.536L70.0686 202.603L51.705 207.479L52.2182 209.412ZM46.0335 190.016L50.9951 208.702L52.9281 208.189L47.9665 189.503L46.0335 190.016ZM65.107 183.917L46.7434 188.793L47.2566 190.726L65.6203 185.85L65.107 183.917ZM59.5211 166.776L64.3972 185.14L66.3302 184.627L61.4541 166.263L59.5211 166.776ZM78.9168 160.592L60.231 165.553L60.7443 167.486L79.4301 162.525L78.9168 160.592ZM73.2454 143.129L78.207 161.815L80.14 161.302L75.1784 142.616L73.2454 143.129ZM92.6411 136.944L73.9552 141.906L74.4685 143.839L93.1544 138.877L92.6411 136.944ZM86.9696 119.482L91.9312 138.167L93.8642 137.654L88.9026 118.968L86.9696 119.482ZM106.365 113.297L87.6795 118.258L88.1928 120.191L106.879 115.23L106.365 113.297ZM100.694 95.8341L105.655 114.52L107.588 114.007L102.627 95.3208L100.694 95.8341ZM120.09 89.6494L101.404 94.611L101.917 96.544L120.603 91.5824L120.09 89.6494ZM138.775 84.6878L120.09 89.6494L120.603 91.5824L139.289 86.6208L138.775 84.6878ZM157.461 79.7262L138.775 84.6878L139.289 86.6208L157.975 81.6592L157.461 79.7262ZM163.646 99.1219L158.684 80.4361L156.751 80.9493L161.713 99.6352L163.646 99.1219ZM181.109 93.4504L162.423 98.412L162.936 100.345L181.622 95.3835L181.109 93.4504ZM187.293 112.846L182.332 94.1603L180.399 94.6736L185.36 113.359L187.293 112.846ZM204.756 107.175L186.07 112.136L186.584 114.069L205.269 109.108L204.756 107.175ZM210.941 126.57L205.979 107.885L204.046 108.398L209.008 127.084L210.941 126.57ZM228.404 120.899L209.718 125.861L210.231 127.794L228.917 122.832L228.404 120.899ZM222.732 103.436L227.694 122.122L229.627 121.609L224.665 102.923L222.732 103.436ZM242.128 97.2515L223.442 102.213L223.955 104.146L242.641 99.1845L242.128 97.2515ZM236.456 79.7888L241.418 98.4747L243.351 97.9614L238.389 79.2756L236.456 79.7888ZM255.852 73.6041L237.166 78.5657L237.679 80.4987L256.365 75.5371L255.852 73.6041ZM250.181 56.1414L255.142 74.8272L257.075 74.314L252.114 55.6281L250.181 56.1414ZM269.576 49.9567L250.89 54.9183L251.404 56.8513L270.09 51.8897L269.576 49.9567ZM270.09 51.8897L288.775 46.9281L288.262 44.9951L269.576 49.9567L270.09 51.8897Z" fill="black" mask="url(#path-2-inside-1_1_4)"/>
<mask id="path-4-inside-2_1_4" fill="white">
<path fill-rule="evenodd" clip-rule="evenodd" d="M288.758 156.888L307.444 151.926L312.405 170.612L293.72 175.573L298.681 194.259L279.995 199.221L284.957 217.907L266.271 222.868L271.233 241.554L252.547 246.516L257.508 265.202L238.823 270.163L220.137 275.125L201.451 280.086L196.489 261.401L177.803 266.362L172.842 247.676L154.156 252.638L149.194 233.952L130.509 238.914L135.47 257.599L116.784 262.561L121.746 281.247L103.06 286.208L108.022 304.894L89.3359 309.856L70.6501 314.817L70.5645 314.495L52.2008 319.371L47.2393 300.685L65.6029 295.809L60.7269 277.446L79.4127 272.484L74.4511 253.798L93.137 248.837L88.1754 230.151L106.861 225.189L101.9 206.504L120.585 201.542L139.271 196.58L157.957 191.619L162.919 210.305L181.605 205.343L186.566 224.029L205.252 219.067L210.214 237.753L228.899 232.792L223.938 214.106L242.624 209.144L237.662 190.458L256.348 185.497L251.386 166.811L270.072 161.849L288.758 156.888Z"/>
</mask>
<path fill-rule="evenodd" clip-rule="evenodd" d="M288.758 156.888L307.444 151.926L312.405 170.612L293.72 175.573L298.681 194.259L279.995 199.221L284.957 217.907L266.271 222.868L271.233 241.554L252.547 246.516L257.508 265.202L238.823 270.163L220.137 275.125L201.451 280.086L196.489 261.401L177.803 266.362L172.842 247.676L154.156 252.638L149.194 233.952L130.509 238.914L135.47 257.599L116.784 262.561L121.746 281.247L103.06 286.208L108.022 304.894L89.3359 309.856L70.6501 314.817L70.5645 314.495L52.2008 319.371L47.2393 300.685L65.6029 295.809L60.7269 277.446L79.4127 272.484L74.4511 253.798L93.137 248.837L88.1754 230.151L106.861 225.189L101.9 206.504L120.585 201.542L139.271 196.58L157.957 191.619L162.919 210.305L181.605 205.343L186.566 224.029L205.252 219.067L210.214 237.753L228.899 232.792L223.938 214.106L242.624 209.144L237.662 190.458L256.348 185.497L251.386 166.811L270.072 161.849L288.758 156.888Z" fill="#FEDE33"/>
<path d="M307.444 151.926L308.41 151.669L308.154 150.703L307.187 150.96L307.444 151.926ZM288.758 156.888L288.501 155.921L288.501 155.921L288.758 156.888ZM312.405 170.612L312.662 171.578L313.629 171.322L313.372 170.355L312.405 170.612ZM293.72 175.573L293.463 174.607L292.496 174.864L292.753 175.83L293.72 175.573ZM298.681 194.259L298.938 195.226L299.904 194.969L299.648 194.003L298.681 194.259ZM279.995 199.221L279.739 198.254L278.772 198.511L279.029 199.478L279.995 199.221ZM284.957 217.907L285.214 218.873L286.18 218.617L285.923 217.65L284.957 217.907ZM266.271 222.868L266.014 221.902L265.048 222.158L265.305 223.125L266.271 222.868ZM271.233 241.554L271.489 242.521L272.456 242.264L272.199 241.298L271.233 241.554ZM252.547 246.516L252.29 245.549L251.324 245.806L251.58 246.772L252.547 246.516ZM257.508 265.202L257.765 266.168L258.732 265.911L258.475 264.945L257.508 265.202ZM238.823 270.163L238.566 269.197L238.566 269.197L238.823 270.163ZM220.137 275.125L220.393 276.091L220.393 276.091L220.137 275.125ZM201.451 280.086L200.484 280.343L200.741 281.309L201.708 281.053L201.451 280.086ZM196.489 261.401L197.456 261.144L197.199 260.177L196.233 260.434L196.489 261.401ZM177.803 266.362L176.837 266.619L177.094 267.585L178.06 267.329L177.803 266.362ZM172.842 247.676L173.808 247.42L173.552 246.453L172.585 246.71L172.842 247.676ZM154.156 252.638L153.19 252.894L153.446 253.861L154.413 253.604L154.156 252.638ZM149.194 233.952L150.161 233.695L149.904 232.729L148.938 232.986L149.194 233.952ZM130.509 238.914L130.252 237.947L129.286 238.204L129.542 239.17L130.509 238.914ZM135.47 257.599L135.727 258.566L136.693 258.309L136.437 257.343L135.47 257.599ZM116.784 262.561L116.528 261.595L115.561 261.851L115.818 262.818L116.784 262.561ZM121.746 281.247L122.003 282.213L122.969 281.957L122.712 280.99L121.746 281.247ZM103.06 286.208L102.804 285.242L101.837 285.499L102.094 286.465L103.06 286.208ZM108.022 304.894L108.278 305.861L109.245 305.604L108.988 304.638L108.022 304.894ZM89.3359 309.856L89.0793 308.889L89.0793 308.889L89.3359 309.856ZM70.6501 314.817L69.6836 315.074L69.9402 316.041L70.9067 315.784L70.6501 314.817ZM70.5645 314.495L71.531 314.239L71.2744 313.272L70.3079 313.529L70.5645 314.495ZM52.2008 319.371L51.2343 319.628L51.491 320.594L52.4575 320.338L52.2008 319.371ZM47.2393 300.685L46.9826 299.719L46.0161 299.976L46.2727 300.942L47.2393 300.685ZM65.6029 295.809L65.8596 296.776L66.8261 296.519L66.5694 295.553L65.6029 295.809ZM60.7269 277.446L60.4702 276.479L59.5037 276.736L59.7604 277.702L60.7269 277.446ZM79.4127 272.484L79.6694 273.451L80.6359 273.194L80.3792 272.228L79.4127 272.484ZM74.4511 253.798L74.1945 252.832L73.228 253.088L73.4846 254.055L74.4511 253.798ZM93.137 248.837L93.3936 249.803L94.3601 249.547L94.1035 248.58L93.137 248.837ZM88.1754 230.151L87.9188 229.184L86.9522 229.441L87.2089 230.408L88.1754 230.151ZM106.861 225.189L107.118 226.156L108.084 225.899L107.828 224.933L106.861 225.189ZM101.9 206.504L101.643 205.537L100.676 205.794L100.933 206.76L101.9 206.504ZM120.585 201.542L120.842 202.508L120.842 202.508L120.585 201.542ZM139.271 196.58L139.015 195.614L139.015 195.614L139.271 196.58ZM157.957 191.619L158.924 191.362L158.667 190.396L157.701 190.652L157.957 191.619ZM162.919 210.305L161.952 210.561L162.209 211.528L163.175 211.271L162.919 210.305ZM181.605 205.343L182.571 205.086L182.314 204.12L181.348 204.377L181.605 205.343ZM186.566 224.029L185.6 224.285L185.856 225.252L186.823 224.995L186.566 224.029ZM205.252 219.067L206.218 218.811L205.962 217.844L204.995 218.101L205.252 219.067ZM210.214 237.753L209.247 238.01L209.504 238.976L210.47 238.72L210.214 237.753ZM228.899 232.792L229.156 233.758L230.123 233.501L229.866 232.535L228.899 232.792ZM223.938 214.106L223.681 213.139L222.715 213.396L222.971 214.362L223.938 214.106ZM242.624 209.144L242.88 210.111L243.847 209.854L243.59 208.887L242.624 209.144ZM237.662 190.458L237.405 189.492L236.439 189.748L236.696 190.715L237.662 190.458ZM256.348 185.497L256.605 186.463L257.571 186.207L257.314 185.24L256.348 185.497ZM251.386 166.811L251.13 165.844L250.163 166.101L250.42 167.067L251.386 166.811ZM270.072 161.849L270.329 162.816L270.329 162.816L270.072 161.849ZM307.187 150.96L288.501 155.921L289.015 157.854L307.7 152.893L307.187 150.96ZM313.372 170.355L308.41 151.669L306.477 152.183L311.439 170.869L313.372 170.355ZM293.976 176.54L312.662 171.578L312.149 169.645L293.463 174.607L293.976 176.54ZM299.648 194.003L294.686 175.317L292.753 175.83L297.715 194.516L299.648 194.003ZM280.252 200.187L298.938 195.226L298.425 193.293L279.739 198.254L280.252 200.187ZM285.923 217.65L280.962 198.964L279.029 199.478L283.99 218.163L285.923 217.65ZM266.528 223.835L285.214 218.873L284.7 216.94L266.014 221.902L266.528 223.835ZM272.199 241.298L267.238 222.612L265.305 223.125L270.266 241.811L272.199 241.298ZM252.803 247.482L271.489 242.521L270.976 240.588L252.29 245.549L252.803 247.482ZM258.475 264.945L253.513 246.259L251.58 246.772L256.542 265.458L258.475 264.945ZM239.079 271.13L257.765 266.168L257.252 264.235L238.566 269.197L239.079 271.13ZM220.393 276.091L239.079 271.13L238.566 269.197L219.88 274.158L220.393 276.091ZM201.708 281.053L220.393 276.091L219.88 274.158L201.194 279.12L201.708 281.053ZM195.523 261.657L200.484 280.343L202.417 279.83L197.456 261.144L195.523 261.657ZM178.06 267.329L196.746 262.367L196.233 260.434L177.547 265.396L178.06 267.329ZM171.875 247.933L176.837 266.619L178.77 266.105L173.808 247.42L171.875 247.933ZM154.413 253.604L173.099 248.643L172.585 246.71L153.899 251.671L154.413 253.604ZM148.228 234.209L153.19 252.894L155.123 252.381L150.161 233.695L148.228 234.209ZM130.765 239.88L149.451 234.919L148.938 232.986L130.252 237.947L130.765 239.88ZM136.437 257.343L131.475 238.657L129.542 239.17L134.504 257.856L136.437 257.343ZM117.041 263.528L135.727 258.566L135.214 256.633L116.528 261.595L117.041 263.528ZM122.712 280.99L117.751 262.304L115.818 262.818L120.779 281.504L122.712 280.99ZM103.317 287.175L122.003 282.213L121.489 280.28L102.804 285.242L103.317 287.175ZM108.988 304.638L104.027 285.952L102.094 286.465L107.055 305.151L108.988 304.638ZM89.5925 310.822L108.278 305.861L107.765 303.928L89.0793 308.889L89.5925 310.822ZM70.9067 315.784L89.5925 310.822L89.0793 308.889L70.3934 313.851L70.9067 315.784ZM69.598 314.752L69.6836 315.074L71.6166 314.561L71.531 314.239L69.598 314.752ZM52.4575 320.338L70.8212 315.462L70.3079 313.529L51.9442 318.405L52.4575 320.338ZM46.2727 300.942L51.2343 319.628L53.1674 319.115L48.2058 300.429L46.2727 300.942ZM65.3463 294.843L46.9826 299.719L47.4959 301.652L65.8596 296.776L65.3463 294.843ZM59.7604 277.702L64.6364 296.066L66.5694 295.553L61.6934 277.189L59.7604 277.702ZM79.1561 271.518L60.4702 276.479L60.9835 278.412L79.6694 273.451L79.1561 271.518ZM73.4846 254.055L78.4462 272.741L80.3792 272.228L75.4177 253.542L73.4846 254.055ZM92.8803 247.87L74.1945 252.832L74.7078 254.765L93.3936 249.803L92.8803 247.87ZM87.2089 230.408L92.1705 249.093L94.1035 248.58L89.1419 229.894L87.2089 230.408ZM106.605 224.223L87.9188 229.184L88.432 231.117L107.118 226.156L106.605 224.223ZM100.933 206.76L105.895 225.446L107.828 224.933L102.866 206.247L100.933 206.76ZM120.329 200.575L101.643 205.537L102.156 207.47L120.842 202.508L120.329 200.575ZM139.015 195.614L120.329 200.575L120.842 202.508L139.528 197.547L139.015 195.614ZM157.701 190.652L139.015 195.614L139.528 197.547L158.214 192.585L157.701 190.652ZM163.885 210.048L158.924 191.362L156.991 191.875L161.952 210.561L163.885 210.048ZM181.348 204.377L162.662 209.338L163.175 211.271L181.861 206.31L181.348 204.377ZM187.533 223.772L182.571 205.086L180.638 205.6L185.6 224.285L187.533 223.772ZM204.995 218.101L186.309 223.062L186.823 224.995L205.509 220.034L204.995 218.101ZM211.18 237.496L206.218 218.811L204.285 219.324L209.247 238.01L211.18 237.496ZM228.643 231.825L209.957 236.787L210.47 238.72L229.156 233.758L228.643 231.825ZM222.971 214.362L227.933 233.048L229.866 232.535L224.904 213.849L222.971 214.362ZM242.367 208.178L223.681 213.139L224.194 215.072L242.88 210.111L242.367 208.178ZM236.696 190.715L241.657 209.401L243.59 208.887L238.629 190.202L236.696 190.715ZM256.091 184.53L237.405 189.492L237.919 191.425L256.605 186.463L256.091 184.53ZM250.42 167.067L255.381 185.753L257.314 185.24L252.353 166.554L250.42 167.067ZM269.815 160.883L251.13 165.844L251.643 167.777L270.329 162.816L269.815 160.883ZM270.329 162.816L289.015 157.854L288.501 155.921L269.815 160.883L270.329 162.816Z" fill="black" mask="url(#path-4-inside-2_1_4)"/>
</g>
<defs>
<clipPath id="clip0_1_4">
<rect width="361" height="361" fill="white"/>
</clipPath>
</defs>
</svg>
